<?xml version="1.0" encoding="utf-8"?>
<!-- Generator: Adobe Illustrator 25.0.0, SVG Export Plug-In . SVG Version: 6.00 Build 0)  -->
<svg version="1.1" id="Layer_1" xmlns="http://www.w3.org/2000/svg" xmlns:xlink="http://www.w3.org/1999/xlink" x="0px" y="0px"
	 viewBox="0 0 25.5 24.14" style="enable-background:new 0 0 25.5 24.14;" xml:space="preserve">
<style type="text/css">
	.st0{fill:#231F20;}
</style>
<g>
	<g>
		<path class="st0" d="M18.33,7.91l-9.73,9.73c-0.39,0.39-1.02,0.39-1.42,0l0,0c-0.39-0.39-0.39-1.02,0-1.42l9.73-9.73
			c0.39-0.39,1.02-0.39,1.42,0v0C18.72,6.89,18.72,7.52,18.33,7.91z"/>
	</g>
	<g>
		<path class="st0" d="M16.91,17.64L7.18,7.91c-0.39-0.39-0.39-1.02,0-1.42l0,0c0.39-0.39,1.02-0.39,1.42,0l9.73,9.73
			c0.39,0.39,0.39,1.02,0,1.42v0C17.93,18.03,17.3,18.03,16.91,17.64z"/>
	</g>
</g>
</svg>
