<?xml version="1.0" encoding="utf-8"?>
<!-- Generator: Adobe Illustrator 27.3.1, SVG Export Plug-In . SVG Version: 6.00 Build 0)  -->
<svg version="1.1" id="Layer_1" xmlns="http://www.w3.org/2000/svg" xmlns:xlink="http://www.w3.org/1999/xlink" x="0px" y="0px"
	 viewBox="0 0 29.4 30.87" style="enable-background:new 0 0 29.4 30.87;" xml:space="preserve">
<style type="text/css">
	.st0{fill:#F05126;}
	.st1{fill:#FFFFFF;}
</style>
<g>
	<circle class="st0" cx="14.7" cy="15.44" r="13.61"/>
	<g>
		<path class="st1" d="M5.28,14.18c-0.02-0.11-0.06-0.36-0.06-0.56c0-1.41,1.06-2.68,2.93-2.68c1.79,0,2.89,1.19,2.89,2.58
			c0,1.04-0.57,1.88-1.56,2.48l-1.55,0.94c-0.31,0.2-0.57,0.42-0.69,0.73h3.84v1.47H5.15c0.01-1.41,0.46-2.56,1.89-3.42l1.32-0.79
			c0.68-0.41,0.95-0.83,0.95-1.38c0-0.58-0.41-1.1-1.21-1.1c-0.85,0-1.27,0.58-1.27,1.34c0,0.15,0.02,0.31,0.06,0.45L5.28,14.18z"/>
		<path class="st1" d="M12.59,12.29c0.53-0.79,1.4-1.35,2.65-1.35c1.25,0,2.11,0.56,2.63,1.35c0.54,0.83,0.72,1.83,0.72,2.86
			c0,1.03-0.17,2.03-0.72,2.86c-0.52,0.79-1.38,1.35-2.63,1.35c-1.25,0-2.11-0.56-2.65-1.35c-0.54-0.83-0.7-1.83-0.7-2.86
			C11.89,14.12,12.05,13.12,12.59,12.29z M14.03,17.19c0.25,0.4,0.63,0.66,1.21,0.66c0.59,0,0.95-0.26,1.2-0.66
			c0.32-0.48,0.45-1.2,0.45-2.04c0-0.84-0.12-1.56-0.45-2.04c-0.25-0.4-0.61-0.66-1.2-0.66c-0.58,0-0.96,0.26-1.21,0.66
			c-0.31,0.48-0.43,1.2-0.43,2.04C13.59,15.99,13.72,16.7,14.03,17.19z"/>
		<path class="st1" d="M20.67,14.1c0.7,0,1.29,0.56,1.29,1.27c0,0.73-0.59,1.27-1.3,1.27c-0.71,0-1.28-0.56-1.28-1.27
			C19.38,14.66,19.97,14.1,20.67,14.1z M20.2,19.15l3.47-4.96h0.99l-3.48,4.96H20.2z M20.67,15.87c0.27,0,0.46-0.21,0.46-0.5
			c0-0.29-0.19-0.49-0.46-0.49c-0.27,0-0.47,0.2-0.47,0.49C20.2,15.67,20.4,15.87,20.67,15.87z M24.16,16.71
			c0.7,0,1.29,0.56,1.29,1.27c0,0.73-0.59,1.27-1.3,1.27c-0.71,0-1.28-0.56-1.28-1.27C22.87,17.27,23.46,16.71,24.16,16.71z
			 M24.16,18.49c0.27,0,0.46-0.21,0.46-0.5c0-0.29-0.19-0.49-0.46-0.49c-0.27,0-0.47,0.2-0.47,0.49
			C23.7,18.29,23.89,18.49,24.16,18.49z"/>
	</g>
</g>
</svg>
